<svg width="456" height="194" viewBox="0 0 456 194" fill="none" xmlns="http://www.w3.org/2000/svg">
<g clip-path="url(#clip0)">
<path d="M160.171 37.1917L160.171 37.1917C160.148 37.169 160.117 37.156 160.084 37.156C160.052 37.156 160.02 37.169 159.998 37.1917C159.975 37.2144 159.962 37.2448 159.962 37.2764V183.887C159.962 183.919 159.975 183.949 159.997 183.972C159.997 183.972 159.997 183.972 159.997 183.972L159.644 184.326C159.761 184.443 159.919 184.508 160.084 184.508L160.171 37.1917ZM160.171 37.1917C160.194 37.2143 160.207 37.2448 160.207 37.2764V183.266V183.766H160.707H384.78C384.813 183.766 384.844 183.779 384.867 183.802C384.889 183.824 384.902 183.855 384.902 183.887C384.902 183.919 384.889 183.949 384.867 183.972C384.844 183.995 384.813 184.008 384.78 184.008L160.171 37.1917Z" fill="#3F3D56" stroke="white"/>
<path d="M384.78 157.346H160.085C160.053 157.346 160.022 157.333 159.999 157.31L159.645 157.664L159.999 157.31C159.976 157.287 159.964 157.257 159.964 157.225C159.964 157.193 159.976 157.163 159.999 157.14C160.022 157.117 160.053 157.104 160.085 157.104H384.78C384.813 157.104 384.844 157.117 384.867 157.14C384.889 157.163 384.902 157.193 384.902 157.225C384.902 157.257 384.889 157.287 384.867 157.31C384.844 157.333 384.813 157.346 384.78 157.346Z" fill="#3F3D56" stroke="white"/>
<path d="M385.092 133.739H160.396C160.363 133.739 160.332 133.726 160.309 133.703L159.956 134.057L160.309 133.703C160.286 133.681 160.273 133.65 160.273 133.618C160.273 133.586 160.286 133.556 160.309 133.533C160.332 133.51 160.363 133.497 160.396 133.497H385.092C385.124 133.497 385.155 133.51 385.178 133.533C385.201 133.556 385.213 133.586 385.213 133.618C385.213 133.65 385.201 133.681 385.178 133.703C385.155 133.726 385.124 133.739 385.092 133.739Z" fill="#3F3D56" stroke="white"/>
<path d="M385.092 110.132H160.397C160.364 110.132 160.333 110.119 160.31 110.096C160.288 110.073 160.275 110.043 160.275 110.011C160.275 109.979 160.288 109.948 160.31 109.926C160.333 109.903 160.364 109.89 160.397 109.89H385.092C385.124 109.89 385.155 109.903 385.178 109.926C385.201 109.948 385.213 109.979 385.213 110.011C385.213 110.043 385.201 110.073 385.178 110.096C385.155 110.119 385.124 110.132 385.092 110.132Z" fill="#3F3D56" stroke="white"/>
<path d="M385.093 86.5254H160.396C160.363 86.5254 160.332 86.5124 160.309 86.4896C160.286 86.4668 160.273 86.436 160.273 86.4042C160.273 86.3724 160.286 86.3416 160.309 86.3188C160.332 86.296 160.363 86.283 160.396 86.283H385.093C385.126 86.283 385.157 86.296 385.18 86.3188C385.203 86.3416 385.215 86.3723 385.215 86.4042C385.215 86.4361 385.203 86.4668 385.18 86.4896C385.157 86.5124 385.126 86.5254 385.093 86.5254Z" fill="#3F3D56" stroke="white"/>
<path d="M385.093 62.9185H160.396C160.363 62.9185 160.332 62.9055 160.309 62.8826C160.286 62.8598 160.273 62.8291 160.273 62.7973C160.273 62.7654 160.286 62.7347 160.309 62.7119C160.332 62.689 160.363 62.676 160.396 62.676H385.093C385.126 62.676 385.157 62.689 385.18 62.7119C385.203 62.7347 385.215 62.7654 385.215 62.7973C385.215 62.8291 385.203 62.8599 385.18 62.8826C385.157 62.9055 385.126 62.9185 385.093 62.9185Z" fill="#3F3D56" stroke="white"/>
<path d="M385.092 39.3116H160.397C160.364 39.3113 160.333 39.2983 160.31 39.2756C160.288 39.2528 160.275 39.2221 160.275 39.1903C160.275 39.1585 160.288 39.1279 160.31 39.1051C160.333 39.0823 160.364 39.0693 160.397 39.0691H385.092C385.124 39.0693 385.155 39.0823 385.178 39.1051C385.201 39.1278 385.213 39.1585 385.213 39.1903C385.213 39.2222 385.201 39.2528 385.178 39.2756C385.155 39.2983 385.124 39.3113 385.092 39.3116Z" fill="#3F3D56" stroke="white"/>
<path d="M182.131 185.495H174.286C173.453 185.494 172.655 185.164 172.066 184.576C171.478 183.989 171.147 183.193 171.146 182.363V160.764C171.147 159.934 171.478 159.138 172.066 158.551C172.655 157.964 173.453 157.633 174.285 157.632H182.131C182.964 157.633 183.762 157.964 184.35 158.551C184.939 159.138 185.27 159.934 185.27 160.765V182.363C185.27 183.193 184.939 183.989 184.35 184.576C183.762 185.164 182.964 185.494 182.131 185.495Z" fill="#3F3D56" stroke="white"/>
<path d="M214.809 185.495H206.963C206.131 185.494 205.332 185.164 204.744 184.576C204.156 183.989 203.825 183.193 203.824 182.363V142.476C203.825 141.646 204.156 140.85 204.744 140.263C205.332 139.675 206.13 139.345 206.963 139.344H214.809C215.642 139.345 216.44 139.675 217.028 140.263C217.616 140.85 217.947 141.646 217.948 142.476V182.362C217.947 183.193 217.616 183.989 217.028 184.576C216.439 185.164 215.641 185.494 214.809 185.495Z" fill="#3F3D56" stroke="white"/>
<path d="M280.164 185.495H272.318C271.486 185.494 270.687 185.164 270.099 184.576C269.511 183.989 269.18 183.193 269.179 182.363V99.4431C269.18 98.613 269.511 97.817 270.099 97.2297C270.687 96.6424 271.485 96.3118 272.318 96.3108H280.164C280.996 96.3118 281.794 96.6424 282.383 97.2297C282.971 97.817 283.302 98.6132 283.303 99.4434V182.362C283.302 183.193 282.971 183.989 282.383 184.576C281.794 185.164 280.996 185.494 280.164 185.495Z" fill="#E6E6E6" stroke="white"/>
<path d="M247.175 185.495H239.33C238.497 185.494 237.699 185.164 237.11 184.576C236.522 183.989 236.191 183.193 236.19 182.363V127.839C236.191 127.009 236.522 126.213 237.11 125.625C237.699 125.038 238.497 124.708 239.329 124.707H247.175C248.008 124.708 248.806 125.038 249.394 125.625C249.983 126.213 250.313 127.009 250.314 127.839V182.363C250.313 183.193 249.983 183.989 249.394 184.576C248.806 185.164 248.007 185.494 247.175 185.495Z" fill="#3F3D56" stroke="white"/>
<path d="M312.841 185.495H304.996C304.163 185.494 303.365 185.164 302.776 184.576C302.188 183.989 301.857 183.193 301.856 182.363V77.6196C301.857 76.7895 302.188 75.9935 302.776 75.4062C303.365 74.8189 304.163 74.4883 304.996 74.4873H312.842C313.674 74.4883 314.472 74.8189 315.061 75.4062C315.649 75.9935 315.98 76.7897 315.981 77.6199V182.363C315.98 183.193 315.649 183.989 315.061 184.576C314.472 185.164 313.674 185.494 312.841 185.495Z" fill="#3F3D56" stroke="white"/>
<path d="M345.519 185.495H337.673C336.841 185.494 336.043 185.164 335.454 184.576C334.866 183.989 334.535 183.193 334.534 182.363V99.4431C334.535 98.613 334.866 97.817 335.454 97.2297C336.043 96.6424 336.841 96.3118 337.673 96.3108H345.519C346.352 96.3118 347.15 96.6424 347.738 97.2297C348.327 97.817 348.658 98.6132 348.659 99.4434V182.362C348.658 183.193 348.327 183.989 347.738 184.576C347.15 185.164 346.352 185.494 345.519 185.495Z" fill="#3F3D56" stroke="white"/>
<path d="M378.196 185.495H370.351C369.518 185.494 368.72 185.164 368.132 184.576C367.543 183.989 367.212 183.193 367.211 182.363V42.1084C367.212 41.2783 367.543 40.4823 368.132 39.895C368.72 39.3077 369.518 38.9771 370.351 38.9761H378.197C379.029 38.9771 379.827 39.3077 380.416 39.895C381.004 40.4823 381.335 41.2785 381.336 42.1087V182.363C381.335 183.193 381.004 183.989 380.416 184.576C379.827 185.164 379.029 185.494 378.196 185.495Z" fill="#E6E6E6" stroke="white"/>
<path d="M391.779 193.5H383.934C383.101 193.499 382.303 193.168 381.714 192.581C381.126 191.994 380.795 191.198 380.794 190.368V50.1133C380.795 49.2831 381.126 48.4871 381.714 47.8998C382.303 47.3125 383.101 46.982 383.933 46.981H391.779C392.612 46.982 393.41 47.3125 393.998 47.8998C394.587 48.4872 394.917 49.2833 394.918 50.1135V190.367C394.917 191.198 394.587 191.994 393.998 192.581C393.41 193.168 392.612 193.499 391.779 193.5Z" fill="#00B0FF" stroke="white"/>
<path d="M140.813 39.1904C140.813 42.1847 138.38 44.6137 135.378 44.6137C132.376 44.6137 129.943 42.1847 129.943 39.1904C129.943 36.1961 132.376 33.7671 135.378 33.7671C138.38 33.7671 140.813 36.1961 140.813 39.1904Z" fill="#E6E6E6" stroke="white"/>
<path d="M140.813 62.7971C140.813 65.7914 138.38 68.2204 135.378 68.2204C132.376 68.2204 129.943 65.7914 129.943 62.7971C129.943 59.8028 132.376 57.3738 135.378 57.3738C138.38 57.3738 140.813 59.8028 140.813 62.7971Z" fill="#E6E6E6" stroke="white"/>
<path d="M140.813 86.404C140.813 89.3983 138.38 91.8274 135.378 91.8274C132.376 91.8274 129.943 89.3983 129.943 86.404C129.943 83.4097 132.376 80.9807 135.378 80.9807C138.38 80.9807 140.813 83.4097 140.813 86.404Z" fill="#E6E6E6" stroke="white"/>
<path d="M140.813 110.011C140.813 113.005 138.38 115.434 135.378 115.434C132.376 115.434 129.943 113.005 129.943 110.011C129.943 107.017 132.376 104.588 135.378 104.588C138.38 104.588 140.813 107.017 140.813 110.011Z" fill="#E6E6E6" stroke="white"/>
<path d="M140.813 133.618C140.813 136.612 138.38 139.041 135.378 139.041C132.376 139.041 129.943 136.612 129.943 133.618C129.943 130.624 132.376 128.195 135.378 128.195C138.38 128.195 140.813 130.624 140.813 133.618Z" fill="#E6E6E6" stroke="white"/>
<path d="M140.813 157.225C140.813 160.219 138.38 162.648 135.378 162.648C132.376 162.648 129.943 160.219 129.943 157.225C129.943 154.231 132.376 151.802 135.378 151.802C138.38 151.802 140.813 154.231 140.813 157.225Z" fill="#E6E6E6" stroke="white"/>
<path d="M450.445 157.071C452.481 159.498 454.002 161.939 454.821 163.912C455.232 164.902 455.455 165.746 455.493 166.398C455.532 167.062 455.377 167.421 455.169 167.594C454.961 167.768 454.58 167.858 453.933 167.703C453.296 167.55 452.502 167.183 451.599 166.605C449.796 165.453 447.656 163.53 445.62 161.103C443.584 158.676 442.063 156.235 441.244 154.261C440.833 153.272 440.61 152.427 440.571 151.775C440.532 151.112 440.688 150.753 440.896 150.579C441.104 150.405 441.485 150.316 442.132 150.471C442.769 150.623 443.563 150.991 444.466 151.568C446.269 152.72 448.409 154.643 450.445 157.071Z" fill="#2F2E41" stroke="white"/>
<path d="M430.508 133.533C442.421 137.497 448.858 150.348 444.887 162.236C440.917 174.124 428.042 180.55 416.129 176.587C404.216 172.623 397.779 159.772 401.75 147.884C405.72 135.996 418.595 129.57 430.508 133.533Z" fill="#2F2E41" stroke="white"/>
<path d="M426.594 185.383V173.76H432.653V185.383H426.594Z" fill="#2F2E41" stroke="white"/>
<path d="M412.477 185.383V173.76H418.535V185.383H412.477Z" fill="#2F2E41" stroke="white"/>
<path d="M432.654 186.03C432.654 186.14 432.596 186.304 432.36 186.513C432.124 186.721 431.755 186.932 431.255 187.119C430.26 187.491 428.852 187.732 427.271 187.732C425.691 187.732 424.282 187.491 423.287 187.119C422.787 186.932 422.418 186.721 422.182 186.513C421.946 186.304 421.889 186.14 421.889 186.03C421.889 185.921 421.946 185.757 422.182 185.548C422.418 185.339 422.787 185.129 423.287 184.942C424.282 184.569 425.691 184.329 427.271 184.329C428.852 184.329 430.26 184.569 431.255 184.942C431.755 185.129 432.124 185.339 432.36 185.548C432.596 185.757 432.654 185.921 432.654 186.03Z" fill="#2F2E41" stroke="white"/>
<path d="M418.536 185.737C418.536 185.846 418.478 186.01 418.242 186.219C418.006 186.428 417.637 186.638 417.137 186.825C416.142 187.198 414.734 187.439 413.153 187.439C411.573 187.439 410.164 187.198 409.169 186.825C408.669 186.638 408.3 186.428 408.064 186.219C407.828 186.01 407.771 185.846 407.771 185.737C407.771 185.628 407.828 185.463 408.064 185.254C408.3 185.046 408.669 184.835 409.169 184.648C410.164 184.276 411.573 184.035 413.153 184.035C414.734 184.035 416.142 184.276 417.137 184.648C417.637 184.835 418.006 185.046 418.242 185.254C418.478 185.463 418.536 185.628 418.536 185.737Z" fill="#2F2E41" stroke="white"/>
<path d="M416.508 126.029C418.505 118.002 427.357 113.201 436.358 115.432C445.36 117.663 450.933 126.038 448.936 134.065C448.433 136.087 447.647 137.568 446.639 138.631C445.633 139.691 444.38 140.362 442.893 140.724C439.888 141.456 435.967 140.923 431.361 139.781C426.759 138.64 422.525 137.155 419.702 134.963C418.298 133.872 417.262 132.62 416.694 131.167C416.128 129.717 416.011 128.027 416.508 126.029Z" fill="#CCCCCC" stroke="white"/>
<path d="M398.496 141.462C401.362 142.818 403.765 144.403 405.335 145.854C406.123 146.582 406.679 147.256 406.987 147.833C407.3 148.42 407.309 148.81 407.193 149.054C407.077 149.299 406.768 149.538 406.115 149.668C405.473 149.795 404.597 149.792 403.535 149.644C401.415 149.348 398.665 148.493 395.799 147.137C392.933 145.78 390.53 144.196 388.96 142.744C388.173 142.016 387.616 141.342 387.309 140.765C386.995 140.179 386.986 139.788 387.102 139.544C387.219 139.3 387.527 139.06 388.181 138.931C388.822 138.804 389.698 138.807 390.761 138.955C392.88 139.25 395.63 140.105 398.496 141.462Z" fill="#2F2E41" stroke="white"/>
<path d="M427.092 150.166C427.092 154.16 423.848 157.398 419.845 157.398C415.842 157.398 412.598 154.16 412.598 150.166C412.598 146.173 415.842 142.935 419.845 142.935C423.848 142.935 427.092 146.173 427.092 150.166Z" fill="white" stroke="white"/>
<path d="M418.743 147.395C418.743 148.541 417.812 149.472 416.661 149.472C415.51 149.472 414.579 148.541 414.579 147.395C414.579 146.249 415.51 145.318 416.661 145.318C417.812 145.318 418.743 146.249 418.743 147.395Z" fill="#3F3D56" stroke="white"/>
<path d="M424.213 166.365L424.213 166.365C424.433 167.579 424.162 168.83 423.458 169.845C422.754 170.859 421.675 171.553 420.458 171.774C419.242 171.995 417.987 171.725 416.97 171.023C415.953 170.321 415.257 169.245 415.034 168.032L415.033 168.023L415.033 168.023C414.918 167.389 414.96 166.893 415.101 166.497C415.241 166.103 415.49 165.774 415.844 165.493C416.57 164.914 417.707 164.556 419.098 164.304C420.489 164.053 421.68 163.991 422.564 164.279C422.994 164.419 423.343 164.639 423.613 164.96C423.884 165.282 424.098 165.732 424.213 166.365Z" fill="white" stroke="white"/>
<path d="M84.3187 155.06C84.3187 167.591 74.1405 177.751 61.5831 177.751C49.0256 177.751 38.8474 167.591 38.8474 155.06C38.8474 142.529 49.0256 132.369 61.5831 132.369C74.1405 132.369 84.3187 142.529 84.3187 155.06Z" fill="#2F2E41" stroke="white"/>
<path d="M51.4944 185.383V173.76H57.5533V185.383H51.4944Z" fill="#2F2E41" stroke="white"/>
<path d="M65.6123 185.383V173.76H71.6712V185.383H65.6123Z" fill="#2F2E41" stroke="white"/>
<path d="M62.2593 186.03C62.2593 186.14 62.2019 186.304 61.9657 186.513C61.7301 186.721 61.3606 186.932 60.8611 187.119C59.8658 187.491 58.4572 187.732 56.8768 187.732C55.2964 187.732 53.8879 187.491 52.8926 187.119C52.3931 186.932 52.0236 186.721 51.788 186.513C51.5518 186.304 51.4944 186.14 51.4944 186.03C51.4944 185.921 51.5518 185.757 51.788 185.548C52.0236 185.339 52.3931 185.129 52.8926 184.942C53.8879 184.569 55.2964 184.329 56.8768 184.329C58.4572 184.329 59.8658 184.569 60.8611 184.942C61.3606 185.129 61.7301 185.339 61.9657 185.548C62.2019 185.757 62.2593 185.921 62.2593 186.03Z" fill="#2F2E41" stroke="white"/>
<path d="M76.3772 185.737C76.3772 185.846 76.3198 186.011 76.0836 186.22C75.848 186.428 75.4785 186.639 74.979 186.826C73.9837 187.198 72.5752 187.439 70.9947 187.439C69.4143 187.439 68.0058 187.198 67.0105 186.826C66.511 186.639 66.1415 186.428 65.9059 186.22C65.6697 186.011 65.6123 185.846 65.6123 185.737C65.6123 185.628 65.6697 185.464 65.9059 185.255C66.1415 185.046 66.511 184.835 67.0105 184.649C68.0058 184.276 69.4143 184.035 70.9947 184.035C72.5752 184.035 73.9837 184.276 74.979 184.649C75.4785 184.835 75.848 185.046 76.0836 185.255C76.3198 185.464 76.3772 185.628 76.3772 185.737Z" fill="#2F2E41" stroke="white"/>
<path d="M69.6124 149.189C69.6124 153.289 66.2817 156.615 62.171 156.615C58.0604 156.615 54.7297 153.289 54.7297 149.189C54.7297 145.088 58.0604 141.763 62.171 141.763C66.2817 141.763 69.6124 145.088 69.6124 149.189Z" fill="white" stroke="white"/>
<path d="M64.3184 149.189C64.3184 150.371 63.358 151.331 62.1713 151.331C60.9846 151.331 60.0242 150.371 60.0242 149.189C60.0242 148.007 60.9846 147.047 62.1713 147.047C63.358 147.047 64.3184 148.007 64.3184 149.189Z" fill="#3F3D56" stroke="white"/>
<path d="M39.5314 133.384C37.7256 125.313 43.4958 117.072 52.5478 115.054C61.6 113.037 70.3349 118.046 72.1408 126.118C72.5958 128.151 72.5562 129.827 72.1298 131.227C71.7045 132.623 70.8835 133.782 69.7152 134.769C67.3551 136.764 63.6081 138.034 58.9754 139.066C54.3486 140.098 49.895 140.657 46.3879 139.954C44.6435 139.604 43.1565 138.946 41.9974 137.898C40.8419 136.854 39.981 135.394 39.5314 133.384Z" fill="#CCCCCC" stroke="white"/>
<path d="M296.263 40.4718C296.263 52.6891 286.339 62.5948 274.096 62.5948C261.853 62.5948 251.93 52.6891 251.93 40.4718C251.93 28.2546 261.853 18.3489 274.096 18.3489C286.339 18.3489 296.263 28.2546 296.263 40.4718Z" fill="#2F2E41" stroke="white"/>
<path d="M257.751 66.324L255.117 61.0725L265.254 56.0058L267.889 61.2573L257.751 66.324Z" fill="#2F2E41" stroke="white"/>
<path d="M255.101 61.8421C256.387 62.6885 257.404 63.6383 258.013 64.4736C258.319 64.8929 258.505 65.2609 258.584 65.555C258.664 65.8498 258.622 66.0105 258.565 66.0958C258.509 66.1811 258.378 66.283 258.075 66.3264C257.773 66.3696 257.36 66.3433 256.854 66.2281C255.845 65.9985 254.569 65.4403 253.283 64.5939C251.997 63.7475 250.981 62.7977 250.372 61.9624C250.066 61.5432 249.879 61.1751 249.8 60.881C249.721 60.5862 249.763 60.4255 249.819 60.3402C249.876 60.2549 250.007 60.153 250.31 60.1097C250.612 60.0664 251.024 60.0927 251.531 60.2079C252.54 60.4376 253.815 60.9957 255.101 61.8421Z" fill="#2F2E41" stroke="white"/>
<path d="M290.441 66.3236L280.304 61.2569L282.938 56.0054L293.076 61.0721L290.441 66.3236Z" fill="#2F2E41" stroke="white"/>
<path d="M298.373 60.3402C298.429 60.4255 298.471 60.5862 298.392 60.881C298.313 61.1751 298.126 61.5432 297.82 61.9624C297.211 62.7977 296.195 63.7475 294.909 64.5939C293.623 65.4403 292.348 65.9985 291.338 66.2281C290.832 66.3433 290.419 66.3696 290.117 66.3264C289.815 66.283 289.683 66.1811 289.627 66.0958C289.571 66.0106 289.528 65.8498 289.608 65.555C289.687 65.261 289.874 64.8929 290.179 64.4736C290.788 63.6383 291.805 62.6885 293.091 61.8421C294.377 60.9958 295.652 60.4376 296.661 60.208C297.168 60.0927 297.58 60.0665 297.882 60.1097C298.185 60.153 298.317 60.2549 298.373 60.3402Z" fill="#2F2E41" stroke="white"/>
<path d="M279.756 34.9379C279.756 38.9311 276.512 42.1698 272.509 42.1698C268.506 42.1698 265.262 38.9311 265.262 34.9379C265.262 30.9448 268.506 27.7061 272.509 27.7061C276.512 27.7061 279.756 30.9448 279.756 34.9379Z" fill="white" stroke="white"/>
<path d="M274.027 36.6282C274.845 37.4448 274.846 38.7593 274.04 39.5642C273.233 40.3691 271.916 40.368 271.098 39.5514C270.28 38.7347 270.279 37.4202 271.085 36.6153C271.891 35.8104 273.208 35.8115 274.027 36.6282Z" fill="#3F3D56" stroke="white"/>
<path d="M275.803 0.515107C284.837 0.881387 291.805 7.78675 291.477 15.84C291.395 17.8448 290.824 19.3929 289.898 20.5934C288.97 21.7979 287.659 22.6862 286.047 23.324C282.806 24.6065 278.435 24.8421 273.815 24.6547C269.188 24.4672 265.373 23.8975 262.763 22.3941C261.471 21.65 260.483 20.6814 259.833 19.4171C259.181 18.1494 258.852 16.5504 258.934 14.5208C259.262 6.46748 266.768 0.148825 275.803 0.515107Z" fill="#00B0FF" stroke="white"/>
<path d="M299.98 41.7475C301.995 44.09 303.507 46.4519 304.329 48.3653C304.741 49.3249 304.969 50.1448 305.014 50.7783C305.06 51.4235 304.913 51.7704 304.716 51.9388C304.52 52.1072 304.154 52.1996 303.522 52.0566C302.901 51.9162 302.124 51.5678 301.236 51.0157C299.465 49.9146 297.355 48.0654 295.34 45.7229C293.325 43.3805 291.814 41.0186 290.991 39.1051C290.579 38.1455 290.352 37.3256 290.306 36.6921C290.261 36.0469 290.407 35.7 290.604 35.5316C290.8 35.3632 291.166 35.2708 291.798 35.4138C292.419 35.5542 293.197 35.9026 294.084 36.4547C295.855 37.5558 297.965 39.405 299.98 41.7475Z" fill="#2F2E41" stroke="white"/>
<path d="M257.651 35.5317C257.848 35.7001 257.995 36.0469 257.949 36.6922C257.904 37.3257 257.677 38.1456 257.264 39.1051C256.442 41.0186 254.93 43.3805 252.915 45.723C250.9 48.0654 248.79 49.9147 247.02 51.0157C246.132 51.5679 245.354 51.9162 244.734 52.0566C244.102 52.1996 243.736 52.1072 243.539 51.9389C243.343 51.7705 243.196 51.4236 243.242 50.7784C243.287 50.1448 243.514 49.3249 243.926 48.3654C244.749 46.4519 246.261 44.09 248.275 41.7475C250.29 39.4051 252.4 37.5558 254.171 36.4548C255.059 35.9026 255.836 35.5543 256.457 35.4139C257.089 35.2709 257.455 35.3633 257.651 35.5317Z" fill="#2F2E41" stroke="white"/>
<path d="M279.83 49.4766L279.83 49.477C279.939 50.0783 279.929 50.6952 279.8 51.2926C279.671 51.89 279.425 52.4561 279.076 52.9588C278.728 53.4614 278.284 53.8907 277.769 54.222C277.254 54.5534 276.679 54.7803 276.076 54.8898C275.473 54.9993 274.855 54.9893 274.256 54.8603C273.657 54.7312 273.09 54.4857 272.586 54.1378C272.082 53.7899 271.652 53.3464 271.32 52.8328C270.988 52.3192 270.761 51.7454 270.651 51.1442C270.651 51.1441 270.651 51.1441 270.651 51.144L270.65 51.1345C270.65 51.1345 270.65 51.1345 270.65 51.1344C270.65 51.1344 270.65 51.1343 270.65 51.1343C270.535 50.5012 270.577 50.005 270.718 49.6089C270.858 49.2148 271.107 48.8861 271.461 48.6046C272.187 48.0256 273.324 47.6674 274.715 47.4161C276.106 47.1648 277.297 47.1023 278.181 47.3904C278.611 47.5306 278.96 47.7512 279.23 48.0715C279.501 48.3934 279.715 48.8434 279.83 49.4766Z" fill="white" stroke="white"/>
<path d="M271.729 126.177L279.343 124.288L271.729 126.177ZM271.729 126.177L271.729 126.177C270.921 126.376 270.066 126.247 269.353 125.819C268.64 125.391 268.127 124.698 267.925 123.892C267.925 123.892 267.925 123.892 267.925 123.892L247.889 43.4203C247.889 43.4202 247.889 43.4201 247.889 43.4201C247.689 42.6142 247.818 41.7621 248.247 41.0507C248.676 40.3393 249.37 39.8265 250.178 39.6251C250.178 39.625 250.178 39.625 250.178 39.625L257.792 37.7366C257.792 37.7365 257.792 37.7365 257.792 37.7365C258.6 37.5371 259.455 37.6657 260.168 38.0942C260.881 38.5226 261.395 39.2155 261.596 40.0208L271.729 126.177ZM261.596 40.0214L281.632 120.493C281.832 121.299 281.703 122.151 281.274 122.863C280.845 123.574 280.151 124.087 279.343 124.288L261.596 40.0214Z" fill="#00B0FF" stroke="white"/>
<path d="M79.0875 60.5454C79.3414 60.6422 79.6051 60.9311 79.7849 61.571C79.9615 62.1997 80.0265 63.0708 79.9611 64.1399C79.8309 66.2717 79.1905 69.0742 78.0581 72.0312C76.9257 74.9882 75.53 77.5025 74.2024 79.1776C73.5366 80.0175 72.9061 80.6234 72.3543 80.9742C71.7927 81.3313 71.4032 81.371 71.1493 81.2741C70.8955 81.1773 70.6318 80.8884 70.452 80.2485C70.2754 79.6198 70.2104 78.7486 70.2757 77.6796C70.406 75.5477 71.0464 72.7453 72.1788 69.7883C73.3112 66.8313 74.7068 64.317 76.0345 62.6419C76.7002 61.8019 77.3308 61.1961 77.8826 60.8453C78.4442 60.4882 78.8337 60.4485 79.0875 60.5454Z" fill="#2F2E41" stroke="white"/>
<path d="M57.2834 66.0247C69.6787 68.0323 78.0949 79.6884 76.0838 92.0576C74.0726 104.427 62.3953 112.829 50 110.821C37.6047 108.813 29.1885 97.1572 31.1996 84.7879C33.2108 72.4186 44.8882 64.0171 57.2834 66.0247Z" fill="#2F2E41" stroke="white"/>
<path d="M43.5532 118.746V107.123H49.6122V118.746H43.5532Z" fill="#2F2E41" stroke="white"/>
<path d="M57.6711 118.746V107.123H63.7301V118.746H57.6711Z" fill="#2F2E41" stroke="white"/>
<path d="M54.3181 119.393C54.3181 119.502 54.2607 119.666 54.0245 119.875C53.7889 120.084 53.4194 120.294 52.9199 120.481C51.9246 120.854 50.5161 121.095 48.9357 121.095C47.3553 121.095 45.9467 120.854 44.9514 120.481C44.4519 120.294 44.0824 120.084 43.8468 119.875C43.6106 119.666 43.5532 119.502 43.5532 119.393C43.5532 119.284 43.6106 119.119 43.8468 118.91C44.0824 118.702 44.4519 118.491 44.9514 118.304C45.9467 117.932 47.3553 117.691 48.9357 117.691C50.5161 117.691 51.9246 117.932 52.9199 118.304C53.4194 118.491 53.7889 118.702 54.0245 118.91C54.2607 119.119 54.3181 119.284 54.3181 119.393Z" fill="#2F2E41" stroke="white"/>
<path d="M68.4361 119.099C68.4361 119.209 68.3787 119.373 68.1424 119.582C67.9068 119.79 67.5374 120.001 67.0379 120.188C66.0425 120.56 64.634 120.801 63.0536 120.801C61.4732 120.801 60.0647 120.56 59.0693 120.188C58.5698 120.001 58.2003 119.79 57.9648 119.582C57.7285 119.373 57.6711 119.209 57.6711 119.099C57.6711 118.99 57.7285 118.826 57.9648 118.617C58.2003 118.408 58.5698 118.198 59.0693 118.011C60.0647 117.638 61.4732 117.398 63.0536 117.398C64.634 117.398 66.0425 117.638 67.0379 118.011C67.5374 118.198 67.9068 118.408 68.1424 118.617C68.3787 118.826 68.4361 118.99 68.4361 119.099Z" fill="#2F2E41" stroke="white"/>
<path d="M61.6681 82.3332C61.7887 86.4319 58.5574 89.8538 54.4485 89.9743C50.3397 90.0948 46.9126 86.8682 46.7919 82.7696C46.6712 78.6709 49.9026 75.2491 54.0114 75.1285C58.1203 75.008 61.5474 78.2346 61.6681 82.3332Z" fill="white" stroke="white"/>
<path d="M56.377 82.5515C56.377 83.7336 55.4166 84.6935 54.2299 84.6935C53.0432 84.6935 52.0828 83.7336 52.0828 82.5515C52.0828 81.3694 53.0432 80.4094 54.2299 80.4094C55.4166 80.4094 56.377 81.3694 56.377 82.5515Z" fill="#3F3D56" stroke="white"/>
<path d="M31.5902 66.7464C29.7845 58.6748 35.5546 50.4339 44.6066 48.4165C53.6588 46.3991 62.3937 51.4079 64.1996 59.4798C64.6546 61.5136 64.615 63.1888 64.1886 64.5888C63.7633 65.9853 62.9423 67.1443 61.774 68.1315C59.4139 70.1258 55.6669 71.3963 51.0342 72.4287C46.4074 73.4599 41.9539 74.0193 38.4467 73.3159C36.7023 72.966 35.2153 72.308 34.0562 71.2603C32.9008 70.2159 32.0398 68.756 31.5902 66.7464Z" fill="#00B0FF" stroke="white"/>
<path d="M28.8189 74.8243C31.6848 76.1809 34.0881 77.7652 35.6583 79.2166C36.4457 79.9444 37.002 80.619 37.3096 81.1954C37.6228 81.7823 37.6318 82.1726 37.5157 82.4168C37.3997 82.661 37.0912 82.901 36.4377 83.0303C35.7958 83.1572 34.9204 83.1542 33.8576 83.0061C31.7379 82.7108 28.9881 81.8557 26.1223 80.4991C23.2564 79.1425 20.8531 77.5582 19.2829 76.1068C18.4955 75.379 17.9393 74.7044 17.6316 74.128C17.3184 73.5411 17.3094 73.1508 17.4255 72.9066C17.5416 72.6624 17.8501 72.4224 18.5036 72.2931C19.1454 72.1662 20.0208 72.1692 21.0837 72.3173C23.2033 72.6126 25.9531 73.4677 28.8189 74.8243Z" fill="#2F2E41" stroke="white"/>
<path d="M54.5817 103.041C51.4425 103.041 48.444 101.956 46.231 100.59C45.1253 99.9081 44.2313 99.1655 43.6204 98.471C42.9912 97.7558 42.7285 97.168 42.7285 96.7888C42.7285 96.6242 42.7772 96.5071 42.8673 96.4054C42.9672 96.2924 43.1399 96.1753 43.4206 96.07C43.9901 95.8564 44.8555 95.7447 45.9868 95.7034C47.1064 95.6624 48.4319 95.6912 49.8968 95.731C50.0729 95.7357 50.2509 95.7407 50.4307 95.7457C51.7411 95.782 53.1458 95.821 54.5817 95.821C57.3391 95.821 60.0288 95.3405 62.1838 94.9555C62.6101 94.8793 63.0155 94.8069 63.3963 94.7427C64.5753 94.5439 65.4741 94.4319 66.0698 94.4896C66.3664 94.5183 66.5162 94.5837 66.585 94.6387C66.6268 94.672 66.6714 94.7234 66.6714 94.8806C66.6714 95.0631 66.6071 95.3362 66.4423 95.6965C66.2806 96.0499 66.0367 96.4563 65.7146 96.8958C65.0708 97.7747 64.1377 98.7555 62.9995 99.6724C60.7142 101.513 57.6748 103.041 54.5817 103.041Z" fill="white" stroke="white"/>
<path d="M81.2828 86.2932L81.2812 86.2936C81.0787 86.3337 80.8697 86.3271 80.6701 86.2745C80.4705 86.2218 80.2857 86.1244 80.1296 85.9897L80.1281 85.9884C79.9679 85.8512 79.8413 85.6795 79.7578 85.4863C79.6743 85.293 79.636 85.0834 79.646 84.8732L79.6461 84.8704C79.9412 77.7918 78.5626 70.7432 75.622 64.2951L75.622 64.2951L75.6208 64.2926C75.5324 64.1015 75.4889 63.8929 75.4935 63.6825C75.4981 63.4722 75.5507 63.2656 75.6474 63.0786L75.6474 63.0786L75.6483 63.0768C75.742 62.8936 75.8765 62.7341 76.0415 62.6104L75.7416 62.2103L76.0415 62.6104C76.2065 62.4868 76.3976 62.4023 76.6003 62.3634L76.6003 62.3634L76.6019 62.3631L93.7045 59.0311C93.7046 59.0311 93.7048 59.0311 93.7049 59.031C94.026 58.9693 94.3585 59.0232 94.6434 59.1831C94.9277 59.3426 95.146 59.5974 95.2598 59.9019C97.7716 66.867 99.2008 74.1747 99.4979 81.5713C99.5072 81.8961 99.4009 82.2139 99.1978 82.4683C98.9942 82.7232 98.7064 82.898 98.3856 82.9612C98.3855 82.9612 98.3854 82.9612 98.3853 82.9612L81.2828 86.2932Z" fill="#FF6584" stroke="white"/>
<path d="M6.28959 101.909L6.28803 101.91C6.08552 101.95 5.8765 101.943 5.67692 101.89C5.47735 101.838 5.29251 101.74 5.13648 101.606L5.13495 101.604C4.97476 101.467 4.84813 101.295 4.76461 101.102C4.68109 100.909 4.64286 100.699 4.65282 100.489L4.65294 100.486C4.94798 93.4078 3.56942 86.3592 0.628808 79.911L0.628815 79.911L0.627671 79.9086C0.539271 79.7175 0.495732 79.5088 0.50033 79.2985C0.504928 79.0882 0.557544 78.8816 0.654219 78.6946L0.654223 78.6946L0.655137 78.6928C0.748893 78.5096 0.883337 78.35 1.0483 78.2264C1.21327 78.1027 1.40441 78.0182 1.60717 77.9794L1.60717 77.9794L1.60873 77.9791L18.7113 74.6471C18.7114 74.6471 18.7116 74.647 18.7117 74.647C19.0328 74.5852 19.3654 74.6391 19.6502 74.799C19.9346 74.9586 20.1529 75.2134 20.2667 75.5179C22.7784 82.483 24.2076 89.7907 24.5047 97.1873C24.514 97.5121 24.4077 97.8299 24.2046 98.0843C24.001 98.3392 23.7131 98.514 23.3922 98.5772C23.3922 98.5772 23.3922 98.5772 23.3922 98.5772L6.28959 101.909Z" fill="#CCCCCC" stroke="white"/>
</g>
<defs>
<clipPath id="clip0">
<rect width="456" height="194" fill="white"/>
</clipPath>
</defs>
</svg>
