<svg width="350" height="294" viewBox="0 0 350 294" fill="none" xmlns="http://www.w3.org/2000/svg">
<g clip-path="url(#clip0)">
<path d="M174.364 286.592C174.364 292.325 138.901 296.97 95.0802 297H94.6818C73.2919 297 53.8684 295.899 39.5557 294.112C38.9431 294.03 38.339 293.953 37.7478 293.872C35.3146 293.55 33.0398 293.203 30.9449 292.843C20.9333 291.099 15 288.935 15 286.592C15 284.693 18.8813 282.919 25.6628 281.385C29.2442 280.575 33.631 279.838 38.686 279.187C39.6157 279.063 40.5696 278.946 41.5477 278.836C55.6463 277.186 74.2686 276.183 94.6818 276.183C98.6487 276.183 102.551 276.222 106.364 276.295C144.83 277.032 174.364 281.359 174.364 286.592Z" fill="#3F3D56"/>
<path d="M169.651 3.3689H51.6316V63.8689H169.651V3.3689Z" fill="#F2F2F2"/>
<path d="M170.019 64.2378H51.2627V3H170.019V64.2378ZM52.0003 63.5H169.282V3.7378H52.0003V63.5Z" fill="#00B0FF"/>
<path d="M316.436 3.3689H198.417V63.8689H316.436V3.3689Z" fill="#F2F2F2"/>
<path d="M169.651 81.2073H51.6316V141.707H169.651V81.2073Z" fill="#F2F2F2"/>
<path d="M316.436 81.2073H198.417V141.707H316.436V81.2073Z" fill="#F2F2F2"/>
<path d="M315.824 159H197.805V219.5H315.824V159Z" fill="#F2F2F2"/>
<path d="M169.651 159.046H51.6316V219.546H169.651V159.046Z" fill="#F2F2F2"/>
<path d="M100.179 111.905C107.383 111.905 113.223 106.064 113.223 98.8584C113.223 91.6528 107.383 85.8115 100.179 85.8115C92.9753 85.8115 87.1355 91.6528 87.1355 98.8584C87.1355 106.064 92.9753 111.905 100.179 111.905Z" fill="#FF6584"/>
<path d="M91.5986 104.633L90.656 104.635L90.726 141.876L91.6686 141.874L91.5986 104.633Z" fill="#3F3D56"/>
<path d="M100.306 109.363C100.39 122.385 91.2503 133.001 91.2503 133.001C91.2503 133.001 81.9737 122.505 81.8893 109.482C81.8048 96.4601 90.9445 85.8438 90.9445 85.8438C90.9445 85.8438 100.221 96.3406 100.306 109.363Z" fill="#00B0FF"/>
<path opacity="0.1" d="M100.306 109.363C100.39 122.385 91.2503 133.001 91.2503 133.001C91.2503 133.001 81.9737 122.505 81.8893 109.482C81.8048 96.4601 90.9445 85.8438 90.9445 85.8438C90.9445 85.8438 100.221 96.3406 100.306 109.363Z" fill="black"/>
<path d="M79.3449 104.656L78.4023 104.658L78.4723 141.899L79.4149 141.897L79.3449 104.656Z" fill="#3F3D56"/>
<path d="M88.0522 109.386C88.1366 122.408 78.9969 133.024 78.9969 133.024C78.9969 133.024 69.7203 122.528 69.6358 109.505C69.5514 96.4831 78.6911 85.8667 78.6911 85.8667C78.6911 85.8667 87.9677 96.3636 88.0522 109.386Z" fill="#00B0FF"/>
<path d="M50.9493 273.151C52.9628 280.595 59.8593 285.206 59.8593 285.206C59.8593 285.206 63.4914 277.746 61.4779 270.302C59.4645 262.857 52.568 258.246 52.568 258.246C52.568 258.246 48.9359 265.706 50.9493 273.151Z" fill="#3F3D56"/>
<path d="M53.9079 271.55C59.4328 276.93 60.1076 285.2 60.1076 285.2C60.1076 285.2 51.8248 284.747 46.2999 279.368C40.7749 273.988 40.1001 265.718 40.1001 265.718C40.1001 265.718 48.3829 266.171 53.9079 271.55Z" fill="#00B0FF"/>
<path d="M78.4432 278.669C78.4432 278.669 72.5552 278.015 71.2467 278.669C69.9382 279.324 67.9755 283.904 71.2467 286.522C74.5179 289.14 83.0228 293.066 85.6398 293.066C88.2567 293.066 90.8736 291.757 90.8736 291.757L89.5651 280.632L78.4432 278.669Z" fill="#2F2E41"/>
<path d="M104.613 281.941L105.267 291.103C105.267 291.103 113.772 292.412 114.426 291.103C115.08 289.794 121.623 286.522 122.277 285.868C122.931 285.213 123.585 278.015 119.66 277.361C115.734 276.706 114.426 278.669 114.426 278.669L104.613 281.941Z" fill="#2F2E41"/>
<path d="M84.3313 78.4242C90.8351 78.4242 96.1074 73.1505 96.1074 66.6451C96.1074 60.1397 90.8351 54.866 84.3313 54.866C77.8275 54.866 72.5552 60.1397 72.5552 66.6451C72.5552 73.1505 77.8275 78.4242 84.3313 78.4242Z" fill="#A0616A"/>
<path d="M78.4434 73.8437L80.4061 86.2772L94.7991 83.6596C94.7991 83.6596 94.1449 71.2261 94.1449 69.9173C94.1449 68.6085 78.4434 73.8437 78.4434 73.8437Z" fill="#A0616A"/>
<path d="M88.4411 52.3748L88.3204 51.4312C87.52 51.4266 86.7241 51.5517 85.9636 51.8016C85.8858 51.2326 85.9355 50.6534 86.1091 50.106C85.3363 50.3047 84.6 50.6249 83.9277 51.0546L83.4519 49.3325L76.9117 52.5566C74.564 53.7139 72.0888 54.9857 70.7468 57.2333C69.2506 59.739 69.5109 62.9594 70.5337 65.6929C71.5565 68.4264 73.2561 70.8454 74.6184 73.4264C75.1356 74.5363 75.7571 75.5944 76.4746 76.5866C78.9433 79.6648 83.7487 80.2867 87.2293 78.4289C88.5139 77.7432 89.681 76.7184 90.2095 75.3614C90.5255 74.5499 90.5977 73.6669 90.8048 72.8211C91.2353 71.062 91.7351 67.431 93.1635 66.3181C93.7921 65.8284 95.0382 67.4518 95.5591 66.8488C96.8977 65.2991 96.6167 62.9093 95.7854 61.0377C94.9875 59.158 94.0549 57.3385 92.9948 55.5932C92.5456 54.8916 88.4266 52.2616 88.4411 52.3748Z" fill="#2F2E41"/>
<path d="M49.6571 114.416C49.6571 114.416 33.9556 129.467 35.9183 137.32C37.881 145.173 53.5825 168.076 53.5825 168.076C53.5825 168.076 68.6298 175.929 70.5925 168.076C72.5552 160.224 60.1248 162.187 60.1248 162.187L50.3114 138.629L61.4333 122.923L49.6571 114.416Z" fill="#A0616A"/>
<path d="M67.9758 100.019L60.1251 98.7107C60.1251 98.7107 54.237 105.255 52.2743 107.872C50.3116 110.49 46.3862 117.034 46.3862 117.034L60.1251 126.85L70.5927 115.725L67.9758 100.019Z" fill="#3F3D56"/>
<path d="M83.8055 34.0135C83.7926 38.0784 87.7628 41.8854 94.034 44.0442C92.7604 50.331 93.7735 55.4048 97.2042 57.3913C100.73 59.4333 105.998 58.0441 111.007 53.7072C115.863 57.8994 120.779 59.5586 124.22 57.588C127.756 55.5626 128.846 50.1516 127.578 43.6603C134.124 41.526 137.792 38.3019 137.805 34.1835C137.818 30.213 133.839 26.7656 127.653 24.6208C129.061 17.8699 127.901 12.9187 124.329 10.8501C120.884 8.85581 115.9 10.5689 110.946 14.8393C105.82 10.274 100.895 8.86966 97.3127 10.9214C93.8588 12.8997 92.8587 18.0594 94.0961 24.4705C88.0232 26.5595 83.818 30.059 83.8055 34.0135Z" fill="white"/>
<path d="M126.428 26.7028C125.914 26.5255 125.395 26.3611 124.871 26.2098C124.959 25.8594 125.041 25.5075 125.116 25.154C126.313 19.4658 125.557 14.878 122.927 13.3603C120.406 11.9046 116.271 13.4011 112.088 16.9962C111.676 17.3512 111.273 17.7165 110.879 18.0919C110.617 17.8407 110.35 17.5944 110.079 17.3529C105.719 13.4809 101.342 11.8414 98.7061 13.347C96.1784 14.7908 95.4173 19.0994 96.4623 24.497C96.5662 25.0315 96.6839 25.5631 96.815 26.0919C96.1944 26.265 95.595 26.4496 95.0214 26.6463C89.8902 28.4063 86.6078 31.1798 86.5987 34.0671C86.5892 37.0493 90.0936 40.0516 95.4268 41.8819C95.8592 42.0296 96.2952 42.1666 96.7346 42.2927C96.59 42.8613 96.4614 43.4336 96.3488 44.0095C95.3194 49.3068 96.0969 53.518 98.6088 54.9687C101.203 56.4665 105.57 54.949 109.83 51.2718C110.167 50.9811 110.505 50.6737 110.843 50.3495C111.267 50.7584 111.702 51.1554 112.148 51.5404C116.252 55.0724 120.311 56.5063 122.83 55.0675C125.432 53.5816 126.29 49.0629 125.211 43.5586C125.129 43.1381 125.034 42.7091 124.925 42.2714C125.232 42.1825 125.532 42.0903 125.826 41.9948C131.382 40.1846 135.003 37.2412 135.012 34.2191C135.022 31.3214 131.652 28.5083 126.428 26.7028H126.428Z" fill="#53C1DE"/>
<path d="M125.479 40.0995C125.217 40.1866 124.948 40.2706 124.675 40.3521C124.012 38.2447 123.209 36.1856 122.271 34.1891C123.186 32.2251 123.97 30.2012 124.618 28.1309C125.107 28.2766 125.582 28.4297 126.039 28.5914C130.462 30.1531 133.156 32.4504 133.15 34.2136C133.144 36.0919 130.22 38.5211 125.479 40.0995H125.479ZM123.502 44.0474C123.973 46.505 124.034 48.7258 123.712 50.4608C123.422 52.0197 122.846 53.0578 122.136 53.472C120.625 54.3535 117.404 53.191 113.936 50.1411C113.538 49.7914 113.138 49.4189 112.736 49.0233C114.191 47.3978 115.537 45.6744 116.763 43.8647C118.944 43.6849 121.11 43.3529 123.246 42.8712C123.342 43.2715 123.428 43.6635 123.502 44.0474V44.0474ZM103.6 53.2594C102.125 53.783 100.952 53.7943 100.244 53.3768C98.7374 52.4882 98.1208 49.0736 98.9907 44.4994C99.0942 43.9589 99.2123 43.4215 99.3451 42.8874C101.469 43.3579 103.623 43.6815 105.79 43.8559C107.041 45.6671 108.407 47.3929 109.881 49.0221C109.583 49.3128 109.278 49.596 108.967 49.8716C107.105 51.5136 105.241 52.6766 103.6 53.2594H103.6ZM96.7396 39.9956C94.4091 39.1783 92.4856 38.1198 91.1685 36.9673C89.9851 35.9313 89.389 34.9048 89.3916 34.0733C89.3971 32.3042 92.0017 30.0558 96.3386 28.5359C96.883 28.3459 97.4325 28.1723 97.9871 28.015C98.6238 30.1124 99.3965 32.1649 100.3 34.1588C99.3726 36.1753 98.5774 38.2519 97.9196 40.3749C97.5233 40.2583 97.1299 40.1319 96.7396 39.9956ZM99.1029 24.0112C98.2182 19.3415 98.8262 15.8231 100.332 14.9446C101.936 14.0087 105.471 15.3619 109.191 18.7376C109.429 18.9534 109.667 19.1793 109.907 19.4129C108.433 21.0223 107.066 22.729 105.815 24.5219C103.667 24.7106 101.533 25.0403 99.4271 25.5091C99.3067 25.0125 99.1986 24.5132 99.1029 24.011V24.0112ZM119.726 29.2525C119.26 28.4306 118.778 27.6191 118.278 26.818C119.804 27.0186 121.266 27.2835 122.638 27.6063C122.193 29.0248 121.678 30.4196 121.094 31.7853C120.654 30.9319 120.198 30.0876 119.726 29.2525ZM111.335 20.9008C112.327 22.0057 113.263 23.1607 114.14 24.3615C112.256 24.2651 110.371 24.2586 108.485 24.3421C109.418 23.1003 110.374 21.9469 111.335 20.9008ZM102.839 29.2126C102.367 30.0378 101.914 30.8739 101.48 31.7209C100.889 30.2853 100.385 28.8742 99.973 27.5117C101.339 27.2058 102.796 26.9569 104.313 26.7693C103.803 27.5719 103.311 28.3863 102.839 29.2126ZM104.31 41.6211C102.83 41.4531 101.359 41.2081 99.9032 40.887C100.33 39.5031 100.855 38.0649 101.467 36.6025C101.897 37.4526 102.347 38.2921 102.816 39.121C103.295 39.9663 103.793 40.7997 104.31 41.6211ZM111.309 47.5331C110.343 46.4684 109.381 45.2912 108.441 44.0253C109.357 44.0648 110.29 44.0861 111.24 44.0893C112.215 44.0924 113.178 44.0738 114.128 44.0334C113.248 45.2481 112.307 46.4162 111.309 47.5331ZM121.099 36.5909C121.702 37.9884 122.234 39.4167 122.692 40.8702C121.217 41.2018 119.727 41.4549 118.226 41.6285C118.735 40.816 119.227 39.9934 119.703 39.1608C120.187 38.3148 120.652 37.4581 121.099 36.5909ZM117.935 38.1182C117.207 39.3945 116.438 40.6457 115.628 41.8718C114.209 41.9702 112.741 42.0186 111.246 42.0138C109.758 42.0091 108.309 41.9573 106.915 41.861C106.093 40.6332 105.317 39.3751 104.588 38.0868C103.863 36.8062 103.187 35.4991 102.559 34.1654C103.193 32.8363 103.875 31.5328 104.606 30.2549V30.2553C105.337 28.9781 106.114 27.7304 106.938 26.5122C108.361 26.4075 109.82 26.355 111.295 26.3597C112.777 26.3645 114.237 26.4268 115.66 26.5415C116.467 27.7621 117.232 29.0105 117.953 30.2868C118.678 31.5655 119.362 32.8673 120.004 34.1919C119.361 35.5252 118.671 36.834 117.936 38.1182H117.935ZM122.224 14.9531C123.823 15.8966 124.435 19.6825 123.413 24.6416C123.346 24.9646 123.273 25.2864 123.195 25.6068C121.088 25.1149 118.952 24.7652 116.8 24.5599C115.573 22.757 114.227 21.0401 112.772 19.421C113.131 19.0714 113.499 18.7309 113.875 18.3997C117.417 15.2892 120.723 14.0673 122.224 14.9531Z" fill="white"/>
<path d="M110.82 29.5518C111.741 29.5547 112.64 29.8305 113.404 30.3444C114.168 30.8584 114.762 31.5873 115.112 32.439C115.461 33.2908 115.551 34.227 115.368 35.1295C115.186 36.032 114.74 36.86 114.087 37.509C113.433 38.158 112.603 38.5987 111.699 38.7755C110.795 38.9523 109.86 38.8571 109.01 38.5021C108.161 38.147 107.436 37.5481 106.926 36.7809C106.417 36.0137 106.147 35.1128 106.15 34.1921C106.152 33.5808 106.274 32.9759 106.51 32.4118C106.746 31.8478 107.09 31.3357 107.524 30.9048C107.958 30.4739 108.472 30.1326 109.037 29.9005C109.603 29.6683 110.209 29.5498 110.82 29.5518Z" fill="#53C1DE"/>
<path d="M119.816 91.5177C119.816 91.5177 134.119 82.3174 133.788 75.9966C133.457 69.6758 124.834 49.7461 124.834 49.7461C124.834 49.7461 118.089 35.718 115.407 41.451C112.726 47.184 118.932 53.2866 118.932 53.2866L122.938 72.8368L112.051 83.2252L119.816 91.5177Z" fill="#A0616A"/>
<path d="M273.805 20.0181L270.89 52.4778L257.785 56.0908L244.717 52.4778L241.805 20.0181H273.805Z" fill="#E44D26"/>
<path d="M257.805 53.4726L268.406 50.5385L270.896 22.6362H257.805V53.4726Z" fill="#F16529"/>
<path d="M252.06 30.4242H257.804V26.4182H247.624L247.721 27.4934L248.719 38.5318H257.806V34.5258H252.433L252.06 30.4242ZM252.983 40.5347H248.911L249.479 46.8249L257.786 49.1091H257.806V44.9291H257.788L253.266 43.7238L252.983 40.5347Z" fill="#EBEBEB"/>
<path d="M244.715 11H246.756V13.0165H248.623V11H250.664V17.1091H248.623V15.0638H246.756V17.1091H244.715V11ZM253.348 13.0261H251.551V11H257.188V13.0261H255.39V17.1091H253.35V13.0261H253.348ZM258.084 11H260.213L261.524 13.147L262.832 11H264.962V17.1091H262.928V14.0814L261.524 16.2534H261.489L260.083 14.0814V17.1091H258.084V11ZM265.977 11H268.018V15.0887H270.896V17.1072H265.983V11H265.977Z" fill="black"/>
<path d="M257.805 38.5327H262.662L262.205 43.7281L257.805 44.9332V49.1091L265.893 46.8328L265.952 46.1556L266.879 35.6097L266.975 34.5347H257.805V38.5403V38.5327ZM257.805 30.4162V30.4258H267.335L267.414 29.5248L267.602 27.4933L267.696 26.4182H257.805V30.4143V30.4162Z" fill="white"/>
<path d="M257.284 137.402L242.99 133.438L239.805 97.7129H274.805L271.617 133.433L257.284 137.402Z" fill="#264DE4"/>
<path d="M268.887 131.16L271.612 100.636H257.308V134.364L268.887 131.16Z" fill="#2965F1"/>
<path d="M247.116 113.88L247.509 118.261H257.315V113.88H247.116ZM246.327 105.011L246.725 109.392H257.313V105.011H246.318H246.327ZM257.313 125.259H257.294L252.414 123.941L252.102 120.446H247.695L248.309 127.326L257.284 129.823H257.305L257.313 125.259Z" fill="#EBEBEB"/>
<path d="M248.043 88H253.349V90.2197H250.261V92.4394H253.349V94.6591H248.043V88ZM254.42 88H259.726V89.9302H256.631V90.3162H259.719V94.7556H254.411V92.7289H257.499V92.3429H254.411V88H254.42ZM260.796 88H266.102V89.9302H262.999V90.3162H266.087V94.7556H260.779V92.7289H263.867V92.3429H260.779V88H260.796Z" fill="black"/>
<path d="M267.476 113.88L268.267 105.011H257.284V109.392H263.459L263.061 113.873H257.284V118.254H262.68L262.163 123.941L257.284 125.263V129.821L266.266 127.331L266.332 126.59L267.366 115.054L267.473 113.877L267.476 113.88Z" fill="white"/>
<path d="M234.805 167H277.805V210H234.805V167Z" fill="#F7DF1E"/>
<path d="M246.139 202.996L249.428 201.016C250.063 202.135 250.64 203.082 252.025 203.082C253.353 203.082 254.189 202.566 254.189 200.558V186.901H258.228V200.613C258.228 204.773 255.778 206.667 252.198 206.667C248.967 206.667 247.092 205.002 246.14 202.995L246.139 202.996ZM260.421 202.564L263.709 200.67C264.575 202.077 265.7 203.107 267.691 203.107C269.365 203.107 270.431 202.275 270.431 201.127C270.431 199.749 269.335 199.262 267.492 198.458L266.482 198.028C263.569 196.795 261.635 195.246 261.635 191.975C261.635 188.962 263.943 186.667 267.549 186.667C270.116 186.667 271.958 187.557 273.29 189.879L270.146 191.888C269.453 190.654 268.703 190.167 267.549 190.167C266.366 190.167 265.615 190.912 265.615 191.888C265.615 193.094 266.365 193.581 268.096 194.325L269.105 194.755C272.535 196.217 274.472 197.709 274.472 201.067C274.472 204.682 271.615 206.662 267.776 206.662C264.019 206.662 261.602 204.875 260.426 202.559" fill="black"/>
<path d="M126.805 96H136.805L111.805 139.125L86.8054 96H105.93L111.805 106L117.555 96H126.805Z" fill="#41B883"/>
<path d="M86.8054 96L111.805 139.125L136.805 96H126.805L111.805 121.875L96.6804 96H86.8054Z" fill="#41B883"/>
<path d="M96.6804 96L111.805 122L126.805 96H117.555L111.805 106L105.93 96H96.6804Z" fill="#35495E"/>
<path d="M105.921 88.2404L107.884 86.2772L111.809 82.3508C111.809 82.3508 124.566 87.9132 123.912 89.8764C123.258 91.8396 119.005 103.291 119.005 103.291L113.117 105.255L105.921 88.2404Z" fill="#3F3D56"/>
<path d="M91.8054 174.961L111.343 168L131.408 174.838L128.159 200.687L111.343 210L94.7911 200.811L91.8054 174.961Z" fill="#E23237"/>
<path d="M131.408 174.838L111.344 168V210L128.159 200.703L131.408 174.838Z" fill="#B52E31"/>
<path d="M111.374 172.904L99.2 199.991L103.748 199.914L106.192 193.803H117.114L119.79 199.991L124.137 200.068L111.374 172.904V172.904ZM111.405 181.582L115.52 190.183H107.785L111.405 181.582Z" fill="white"/>
<path d="M73.2093 169.385L67.3213 170.04C67.3213 170.04 64.7044 181.819 67.3213 197.524C69.9382 213.23 73.2093 228.935 73.2093 228.935C73.2093 228.935 75.8263 279.978 77.1347 280.632C78.4432 281.287 90.2193 285.213 90.8735 281.287C91.5278 277.36 91.5278 187.708 91.5278 187.708L100.687 230.898C100.687 230.898 101.995 285.213 104.612 285.213C107.229 285.213 115.734 284.559 115.734 279.978C115.734 275.397 117.697 215.193 117.697 215.193C117.697 215.193 117.043 170.694 114.426 169.385C111.809 168.076 73.2093 169.385 73.2093 169.385Z" fill="#2F2E41"/>
<path d="M77.789 86.2773C77.789 86.2773 94.1447 82.3509 96.1074 83.6597C98.0701 84.9685 107.884 86.2773 107.884 86.2773L119.005 103.292L115.734 124.887C115.734 124.887 115.08 159.57 116.389 165.459C117.697 171.349 124.893 172.003 109.846 173.312C94.7989 174.621 92.182 172.657 81.7143 175.275C71.2466 177.893 62.7417 173.966 65.3586 171.349C67.9755 168.731 72.5551 126.85 67.3213 122.923C62.0875 118.997 60.1248 98.7108 60.1248 98.7108C60.1248 98.7108 77.789 89.5492 77.789 86.2773Z" fill="#3F3D56"/>
</g>
<defs>
<clipPath id="clip0">
<rect width="350" height="294" fill="white"/>
</clipPath>
</defs>
</svg>
